<?xml version="1.0" encoding="UTF-8" standalone="no"?>
<!-- Created with Inkscape (http://www.inkscape.org/) -->

<svg
   xmlns:dc="http://purl.org/dc/elements/1.1/"
   xmlns:cc="http://creativecommons.org/ns#"
   xmlns:rdf="http://www.w3.org/1999/02/22-rdf-syntax-ns#"
   xmlns:svg="http://www.w3.org/2000/svg"
   xmlns="http://www.w3.org/2000/svg"
   xmlns:sodipodi="http://sodipodi.sourceforge.net/DTD/sodipodi-0.dtd"
   xmlns:inkscape="http://www.inkscape.org/namespaces/inkscape"
   width="612.31433"
   height="570.40625"
   id="svg3947"
   version="1.1"
   inkscape:version="0.48.5 r10040"
   sodipodi:docname="shallnotpass.svg">
  <defs
     id="defs3949" />
  <sodipodi:namedview
     id="base"
     pagecolor="#ffffff"
     bordercolor="#666666"
     borderopacity="1.0"
     inkscape:pageopacity="0.0"
     inkscape:pageshadow="2"
     inkscape:zoom="0.35"
     inkscape:cx="252.57454"
     inkscape:cy="90.929783"
     inkscape:document-units="px"
     inkscape:current-layer="layer1"
     showgrid="false"
     inkscape:window-width="1144"
     inkscape:window-height="916"
     inkscape:window-x="201"
     inkscape:window-y="94"
     inkscape:window-maximized="0"
     fit-margin-top="5"
     fit-margin-left="5"
     fit-margin-right="5"
     fit-margin-bottom="5" />
  <metadata
     id="metadata3952">
    <rdf:RDF>
      <cc:Work
         rdf:about="">
        <dc:format>image/svg+xml</dc:format>
        <dc:type
           rdf:resource="http://purl.org/dc/dcmitype/StillImage" />
        <dc:title />
      </cc:Work>
    </rdf:RDF>
  </metadata>
  <g
     inkscape:label="Layer 1"
     inkscape:groupmode="layer"
     id="layer1"
     transform="translate(-122.42545,-52.885716)">
    <g
       transform="translate(41.081704,-22.270534)"
       id="g3930">
      <path
         inkscape:connector-curvature="0"
         id="path3097-3"
         d="m 118.54342,617.89725 -21.422867,-21.45241 0,-20.43136 0,-20.43136 L 226.34677,426.29282 355.573,297.00353 353.52445,283.811 c -2.56668,-16.52928 -1.73995,-39.54772 2.09588,-58.3554 15.98113,-78.35786 84.06663,-133.79524 164.32081,-133.79524 43.81748,0 84.6079,16.29711 115.97045,46.33401 25.60643,24.52409 40.94074,52.18607 48.4838,87.46123 4.07398,19.05208 4.07398,48.84637 0,67.89845 -7.54306,35.27516 -22.87737,62.93714 -48.4838,87.46123 -25.23599,24.16929 -52.81612,37.80672 -89.58539,44.29686 -14.97721,2.64362 -41.66766,2.66977 -54.749,0.0536 l -9.8944,-1.97879 -23.75957,23.64916 -23.75959,23.64923 -41.87325,0 -41.87326,0 0,21.10805 0,21.10804 -21.10805,0 -21.10804,0 0,21.10805 0,21.10805 -21.10805,0 -21.10805,0 0,20.79323 0,20.79323 -21.45242,21.42287 -21.45243,21.42286 -41.5569,0 -41.55691,0 -21.42286,-21.45243 z m 231.87371,-252.946 0,-21.76767 -105.54024,105.53405 -105.54023,105.53405 0,21.76767 0,21.76767 105.54023,-105.53405 105.54024,-105.53405 0,-21.76767 z M 575.95667,256.90772 c 19.82543,-7.53307 30.46257,-26.96354 26.43795,-48.29322 -2.71866,-14.40834 -14.00714,-27.5205 -26.90523,-31.25183 -6.95226,-2.01122 -21.03131,-2.01122 -27.98357,0 -18.87715,5.46102 -30.91968,27.12453 -26.90523,48.40029 4.72686,25.05135 31.6005,40.17116 55.35608,31.14476 z"
         style="fill:#ffffff;fill-opacity:1;stroke:#000000;stroke-width:2.4000001;stroke-miterlimit:4;stroke-opacity:0.31282055;stroke-dasharray:none" />
      <path
         inkscape:connector-curvature="0"
         id="path3097"
         d="m 108.85144,607.48118 -21.422873,-21.45241 0,-20.43136 0,-20.43136 129.226223,-129.2893 129.22623,-129.28929 -2.04855,-13.19253 c -2.56668,-16.52928 -1.73995,-39.54772 2.09588,-58.3554 15.98113,-78.35786 84.06663,-133.795237 164.32081,-133.795237 43.81748,0 84.6079,16.29711 115.97045,46.334007 25.60643,24.52409 40.94074,52.18607 48.4838,87.46123 4.07398,19.05208 4.07398,48.84637 0,67.89845 -7.54306,35.27516 -22.87737,62.93714 -48.4838,87.46123 -25.23599,24.16929 -52.81612,37.80672 -89.58539,44.29686 -14.97721,2.64362 -41.66766,2.66977 -54.749,0.0536 l -9.8944,-1.97879 -23.75957,23.64916 -23.75959,23.64923 -41.87325,0 -41.87326,0 0,21.10805 0,21.10804 -21.10805,0 -21.10804,0 0,21.10805 0,21.10805 -21.10805,0 -21.10805,0 0,20.79323 0,20.79323 -21.45242,21.42287 -21.45243,21.42286 -41.5569,0 -41.55691,0 -21.42286,-21.45243 z m 231.87371,-252.946 0,-21.76767 -105.54024,105.53405 -105.54023,105.53405 0,21.76767 0,21.76767 105.54023,-105.53405 105.54024,-105.53405 0,-21.76767 z M 566.26469,246.49165 c 19.82543,-7.53307 30.46257,-26.96354 26.43795,-48.29322 -2.71866,-14.40834 -14.00714,-27.5205 -26.90523,-31.25183 -6.95226,-2.01122 -21.03131,-2.01122 -27.98357,0 -18.87715,5.46102 -30.91968,27.12453 -26.90523,48.40029 4.72686,25.05135 31.6005,40.17116 55.35608,31.14476 z"
         style="fill:#000000;stroke:#ffffff;stroke-width:2.20000005;stroke-miterlimit:4;stroke-opacity:0.31372549;stroke-dasharray:none" />
    </g>
  </g>
</svg>
